<?xml version="1.0" encoding="utf-8"?>
<!-- Generator: Adobe Illustrator 28.0.0, SVG Export Plug-In . SVG Version: 6.00 Build 0)  -->
<svg version="1.1" id="Layer_1" xmlns="http://www.w3.org/2000/svg" xmlns:xlink="http://www.w3.org/1999/xlink" x="0px" y="0px"
	 viewBox="0 0 1080 1080" style="enable-background:new 0 0 1080 1080;" xml:space="preserve">
<style type="text/css">
	.st0{fill:#73CC00;}
	.st1{fill:#FFF421;}
	.st2{fill:#292D32;}
</style>
<path class="st0" d="M-1926.23,547.99h-89.95c-29.05,0-52.6-23.55-52.6-52.6v-89.95c0-29.05,23.55-52.6,52.6-52.6h89.95
	c29.05,0,52.6,23.55,52.6,52.6v89.95C-1873.62,524.44-1897.17,547.99-1926.23,547.99z"/>
<g>
	<path d="M-2042,428.49l-7.28-17.06h3.26l5.91,14.29h0.2l5.86-14.29h3.23l-7.28,17.06H-2042z"/>
	<path d="M-2019.97,428.49v-17.06h13.65v2.47h-10.9v4.79h10.52v2.44h-10.52v4.89h10.9v2.47L-2019.97,428.49L-2019.97,428.49z"/>
	<path d="M-1994.5,428.49v-17.06h2.95l7.64,9.98l2.22,3.18h0.2l-0.13-3.08v-10.08h2.75v17.06h-2.95l-7.69-9.96l-2.14-3h-0.2
		l0.1,2.95v10.01L-1994.5,428.49L-1994.5,428.49z"/>
	<path d="M-1966.49,428.49v-17.06h7.77c5.3,0,8.63,3.26,8.63,8.53s-3.34,8.53-8.63,8.53H-1966.49z M-1963.77,413.89v12.12h5.04
		c3.95,0,5.73-1.68,5.73-6.06s-1.78-6.06-5.73-6.06H-1963.77z"/>
	<path d="M-1938.89,419.96c0-5.32,3.54-8.79,8.89-8.79c5.4,0,8.91,3.46,8.91,8.79s-3.51,8.79-8.91,8.79
		C-1935.35,428.74-1938.89,425.28-1938.89,419.96z M-1923.99,419.96c0-4.25-1.96-6.16-6.01-6.16s-5.99,1.91-5.99,6.16
		s1.94,6.14,5.99,6.14C-1925.95,426.09-1923.99,424.21-1923.99,419.96z"/>
	<path d="M-1909.37,428.49v-17.06h8.86c3.87,0,6.26,1.83,6.26,5.02c0,2.83-1.86,4.56-5.07,4.74v0.18c1.32,0.36,1.94,1.12,2.55,2.19
		l2.85,4.94h-3.16l-2.73-4.71c-0.76-1.35-1.55-1.91-3.69-1.91h-3.13v6.62L-1909.37,428.49L-1909.37,428.49z M-1906.62,419.75h6.09
		c2.29,0,3.44-0.79,3.44-2.93c0-2.09-1.15-2.93-3.44-2.93h-6.09V419.75z"/>
</g>
<g>
	<g>
		<g id="Group_456_00000037659339745338015170000004421280741759922365_" transform="translate(122.126 135.481)">
			<g id="Group_5_00000079482314117158749710000012739359205519071675_" transform="translate(0 0)">
				<path id="Path_649_00000000180790935086719350000010304311450042981515_" d="M-2174.46,307.4h12.28l4.14,15.87
					c0.81,3.07,1.7,7.41,1.7,7.41h0.15c0,0,0.89-4.42,1.7-7.63l3.99-15.65h10.2l4.14,15.65c0.81,3.29,1.78,7.71,1.78,7.71h0.15
					c0,0,0.96-4.42,1.78-7.49l4.22-15.87h11.91l-11.61,38.33h-11.31l-4.44-17.37c-0.81-3-1.63-6.89-1.63-6.89h-0.15
					c0,0-0.89,3.89-1.7,6.89l-4.51,17.37h-11.17L-2174.46,307.4z"/>
				<path id="Path_650_00000020396145075181296410000000575429535884688057_" d="M-2096.36,338.1c-4.95,0-7.77-3.22-8.5-8.39h27.22
					c0.07-7.79-2.14-14.45-6.66-18.64c-3.5-3.19-8.15-4.92-12.94-4.79c-11.54,0-19.45,8.77-19.45,20.22
					c0,11.61,7.69,20.37,20.2,20.37c4.23,0.11,8.38-1.13,11.83-3.52c3.17-2.17,5.44-5.39,6.36-9.06h-11.76
					C-2091.11,336.68-2093.19,338.1-2096.36,338.1z M-2097.03,314.97c3.92,0,6.72,2.92,7.17,7.48h-14.94
					C-2103.98,317.89-2101.61,314.97-2097.03,314.97z"/>
				<path id="Path_651_00000034086345748888301140000015395210087577906321_" d="M-2073.58,307.4h11.53v5.99h0.22
					c2.66-4.57,5.77-6.59,10.35-6.59c0.8-0.05,1.61,0.05,2.37,0.3v10.48h-0.3c-7.4-1.05-12.13,2.62-12.13,10.93v17.22h-12.05
					L-2073.58,307.4L-2073.58,307.4z"/>
			</g>
		</g>
		<g id="Path_652_00000054969408799736408550000015193297465096160940_">
			<g>
				<g>
					<g>
						<path d="M-1892.5,471.65v10.18h-31.39l0.03-1.31c0.12-7.2,3.6-11.11,6.99-13.98c1.69-1.46,3.57-2.85,5.39-4.19
							c1.92-1.41,3.72-2.75,5.18-4.05l0.05-0.05c1.19-0.88,1.89-2.23,1.95-3.68c0.03-0.27,0.03-0.5,0.01-0.73l-0.01-0.04
							c-0.15-1.6-1.5-2.81-3.16-2.81c-0.1,0-0.2,0.01-0.29,0.02h-0.13c-0.09-0.01-0.18-0.01-0.27-0.01c-1.05,0-2.02,0.44-2.68,1.23
							c-0.92,1.07-1.34,2.53-1.39,4.74l-0.02,1.26h-11.12v-1.28c0-4.57,0.82-7.55,2.79-10.27c2.51-3.66,7.12-5.68,12.95-5.68
							c4.57,0,8.41,1.33,11.11,3.86c2.57,2.48,4,5.91,3.92,9.43c0,5.78-3.2,9.07-6.66,11.78c-1.28,1.07-2.69,2.08-4.05,3.05
							c-1.17,0.8-2.3,1.65-3.38,2.54L-1892.5,471.65z"/>
					</g>
				</g>
			</g>
		</g>
	</g>
	<g>
		<g>
			<path d="M-1957,499.04c0-4.82,3.39-8.05,8.57-8.05c4.92,0,8.28,2.64,8.28,7.34c0,0.56-0.03,0.99-0.13,1.46h-13.49
				c0.13,2.98,1.63,4.57,5.31,4.57c3.32,0,4.7-1.06,4.7-2.89v-0.25h3.45v0.28c0,3.29-3.32,5.56-8.06,5.56
				C-1953.58,507.06-1957,504.2-1957,499.04z M-1953.74,497.92h10.33v-0.06c0-2.86-1.69-4.23-5.08-4.23
				C-1952.01,493.63-1953.55,495.16-1953.74,497.92z"/>
			<path d="M-1938.26,503.02c0-2.39,1.98-3.64,5.11-3.98l7.22-0.75v-0.9c0-2.55-1.15-3.45-4.19-3.45c-2.94,0-4.38,0.93-4.38,3.2
				v0.12h-3.42v-0.12c0-3.51,3-6.15,8.06-6.15s7.32,2.67,7.32,6.37v9.39h-3.17v-3.85h-0.22c-0.83,2.61-3.36,4.17-6.97,4.17
				C-1936.19,507.06-1938.26,505.57-1938.26,503.02z M-1931.97,504.64c3.61,0,6.04-1.31,6.04-4.35l-6.23,0.68
				c-1.79,0.22-2.65,0.62-2.65,1.83C-1934.81,504.05-1933.95,504.64-1931.97,504.64z"/>
			<path d="M-1912.69,506.75c-3.42,0-5.53-1.46-5.53-5.22v-7.43h-2.68v-2.8h2.68v-3.39h3.42v3.39h5.75v2.8h-5.75v7.24
				c0,1.9,0.9,2.39,2.88,2.39h2.88v3.01L-1912.69,506.75L-1912.69,506.75z"/>
			<path d="M-1907.38,501.53v-0.09h3.45v0.25c0,2.02,1.25,2.67,4.57,2.67c3.1,0,4.03-0.62,4.03-1.99c0-1.27-0.77-1.68-3.04-1.99
				l-4.35-0.56c-3-0.37-4.83-1.62-4.83-4.2c0-2.71,2.53-4.63,7.42-4.63c4.86,0,7.8,1.9,7.8,5.56v0.09h-3.42v-0.19
				c0-1.83-0.96-2.8-4.48-2.8c-2.91,0-3.93,0.62-3.93,2.08c0,1.21,0.64,1.65,3.04,1.96l3.68,0.5c3.77,0.47,5.5,1.71,5.5,4.26
				c0,2.89-2.94,4.6-7.42,4.6C-1904.47,507.06-1907.38,505.1-1907.38,501.53z"/>
		</g>
	</g>
</g>
<g>
	<g>
		<g>
			<g>
				<path class="st1" d="M618.29,805.52v-95.55h24.38v12.74c5.99-9.28,15.96-14.52,28.49-14.52c19.93,0,32.31,13.27,32.31,34.63
					v14.96h-25.82v-11.21c0-11.12-4.13-15.26-15.25-15.26c-12.7,0-18.12,6.27-18.12,20.98v53.23H618.29z"/>
				<path class="st2" d="M671.16,711.53c20.21,0,28.97,14.48,28.97,31.29v11.62h-19.14v-7.87c0-12.7-5.36-18.6-18.6-18.6
					c-15.2,0-21.46,8.4-21.46,24.32v49.89h-19.31v-88.87h17.7v23.96h1.25C643.27,722.97,652.92,711.53,671.16,711.53 M671.16,704.84
					c-10.11,0-18.7,3.1-25.15,8.79v-0.32v-6.68h-6.68h-17.7h-6.68v6.68v88.87v6.68h6.68h19.31h6.68v-6.68V752.3
					c0-14.69,5.65-17.64,14.78-17.64c9.24,0,11.91,2.67,11.91,11.92v7.87v6.68h6.68h19.14h6.68v-6.68v-11.62
					C706.81,719.75,692.82,704.84,671.16,704.84L671.16,704.84z"/>
			</g>
			<g>
				<path class="st1" d="M718.05,805.52v-95.55h25.99v95.55H718.05z M718.05,706.28v-27.24h25.99v27.24H718.05z"/>
				<path class="st2" d="M740.7,682.38v20.56h-19.31v-20.56H740.7 M740.7,713.31v88.87h-19.31v-88.87H740.7 M747.38,675.7h-6.68
					h-19.31h-6.68v6.68v20.56v6.68v3.69v88.87v6.68h6.68h19.31h6.68v-6.68v-88.87v-6.68v-3.69v-20.56V675.7L747.38,675.7z"/>
			</g>
			<g>
				<path class="st1" d="M803.81,807.31c-28.97,0-46.97-18.96-46.97-49.48c0-30.63,17.52-49.65,45.72-49.65
					c15.47,0,27.42,5.61,34.39,15.77v-44.91h25.99v126.48h-24.38v-14.69C831.72,801.56,819.8,807.31,803.81,807.31z M809.35,732.39
					c-18.46,0-26.34,7.61-26.34,25.44c0,17.82,7.74,25.09,26.7,25.09c18.07,0,27.24-8.14,27.24-24.2v-1.43
					C836.95,740.54,827.92,732.39,809.35,732.39z"/>
				<path class="st2" d="M859.6,682.38v119.8h-17.7v-25.57h-1.25c-3.76,17.7-16.81,27.36-36.84,27.36
					c-28.08,0-43.63-18.78-43.63-46.14c0-27.71,15.38-46.31,42.38-46.31c21.1,0,33.08,10.91,36.65,25.93h1.07v-55.07H859.6
					 M809.71,786.27c18.95,0,30.58-8.94,30.58-27.54v-1.43c0-18.95-11.09-28.25-30.94-28.25c-18.6,0-29.68,7.33-29.68,28.78
					C779.67,779.12,790.58,786.27,809.71,786.27 M866.28,675.7h-6.68h-19.31h-6.68v6.68v32.88c-0.68-0.6-1.39-1.17-2.11-1.73
					c-7.61-5.76-17.35-8.69-28.93-8.69c-15.02,0-27.57,5.19-36.31,15c-8.34,9.38-12.75,22.51-12.75,37.99
					c0,15.4,4.51,28.48,13.03,37.83c8.94,9.81,21.83,14.99,37.28,14.99c13.04,0,23.75-3.77,31.4-10.77v2.3v6.68h6.68h17.7h6.68
					v-6.68v-119.8V675.7L866.28,675.7z M809.71,779.59c-8.42,0-14.25-1.5-17.81-4.6c-3.73-3.24-5.55-8.85-5.55-17.15
					c0-16.11,6.23-22.1,23-22.1c21.74,0,24.25,12.31,24.25,21.57v1.43C833.6,779.59,815.62,779.59,809.71,779.59L809.71,779.59z"/>
			</g>
			<g>
				<path class="st1" d="M928.24,807.31c-31.84,0-51.62-18.96-51.62-49.48c0-29.7,20.6-49.65,51.26-49.65
					c30.63,0,49.65,17.45,49.65,45.54c0,3.66-0.23,6.28-0.78,9.06l-0.54,2.69h-74.59c1.64,13.69,9.61,19.6,26.07,19.6
					c22.94,0,22.94-9.65,22.94-13.29v-4.77h25.99v4.95C976.64,792.78,956.74,807.31,928.24,807.31z M952.5,748.06
					c-1.04-12.41-8.86-17.99-24.97-17.99c-15.55,0-23.58,5.58-25.59,17.99H952.5z"/>
				<path class="st2" d="M927.88,711.53c27.54,0,46.31,15.2,46.31,42.2c0,3.22-0.18,5.72-0.71,8.41h-75.46
					c0.71,17.16,9.12,26.28,29.68,26.28c18.6,0,26.28-6.07,26.28-16.63v-1.43h19.31v1.61c0,18.95-18.6,32.01-45.06,32.01
					c-29.14,0-48.28-16.45-48.28-46.14C879.96,730.12,898.92,711.53,927.88,711.53 M898.2,751.4h57.76v-0.36
					c0-16.45-9.48-24.32-28.43-24.32C907.86,726.73,899.27,735.49,898.2,751.4 M927.88,704.84c-15.95,0-29.6,5.07-39.48,14.65
					c-9.9,9.6-15.13,22.86-15.13,38.34c0,16.26,5.31,29.78,15.35,39.1c9.67,8.98,23.37,13.72,39.62,13.72
					c30.47,0,51.74-15.91,51.74-38.69v-1.61v-6.66l0.05-0.26c0.59-2.97,0.84-5.87,0.84-9.71
					C980.88,724.03,960.08,704.84,927.88,704.84L927.88,704.84z M906.1,744.72c2.1-6.43,7.46-11.31,21.42-11.31
					c14.56,0,19.56,4.92,21.11,11.31H906.1L906.1,744.72z M905.62,768.81h41.69v1.54v1.43c0,4.03-1.62,5.66-3.2,6.72
					c-2.21,1.47-6.84,3.23-16.4,3.23c-8.26,0-14.23-1.65-17.74-4.92C907.92,774.91,906.48,772.27,905.62,768.81L905.62,768.81z"/>
			</g>
		</g>
	</g>
</g>
<g>
	<g id="Group_456_00000166667689890546366400000005576954320437581204_" transform="translate(122.126 135.481)">
		<g id="Group_5_00000011727120458296726320000014565149977407163311_" transform="translate(0 0)">
			<path id="Path_649_00000055694837486157380950000008097518516575837337_" d="M-25.63,292.21h67.48l22.76,89.75
				c4.47,17.36,9.35,41.91,9.35,41.91h0.81c0,0,4.88-24.98,9.35-43.16l21.95-88.47h56.1l22.76,88.47
				c4.47,18.62,9.76,43.59,9.76,43.59h0.81c0,0,5.28-24.98,9.76-42.33l23.17-89.75h65.45l-63.82,216.71h-62.17l-24.39-98.2
				c-4.48-16.96-8.95-38.95-8.95-38.95h-0.8c0,0-4.88,22.01-9.35,38.95l-24.81,98.2H38.23L-25.63,292.21z"/>
			<path id="Path_650_00000003820950067043260300000007575749733861117080_" d="M291.89,400.14c0-64.74,43.5-114.29,106.92-114.29
				c26.36-0.7,51.93,9.04,71.14,27.09c24.8,23.7,37,61.38,36.58,105.4h-149.6c4.07,29.21,19.53,47.42,46.76,47.42
				c17.47,0,28.86-8.04,34.56-21.58h64.61c-5.06,20.74-17.48,38.94-34.94,51.22c-18.92,13.53-41.74,20.52-65,19.91
				C334.17,515.3,291.89,465.77,291.89,400.14z M439.45,377.3c-2.44-25.82-17.88-42.33-39.41-42.33
				c-25.21,0-38.21,16.51-42.69,42.33H439.45z"/>
			<path id="Path_651_00000080177210631471793260000014922285995239713167_" d="M528.92,292.21h63.41v33.86h1.22
				c14.64-25.82,31.71-37.25,56.92-37.25c4.41-0.3,8.83,0.27,13.02,1.7v59.24h-1.63c-40.65-5.94-66.68,14.81-66.68,61.8v97.36
				h-66.25V292.21z"/>
		</g>
	</g>
	<g id="Path_652_00000106837587596485293300000002278161458662176676_">
		<path class="st1" d="M803.1,647.37l0.12-6.88c0.66-40.51,19.72-62.51,38.28-78.69c9.25-8.23,20.07-16.43,29.62-23.66
			c10.53-7.98,20.48-15.52,28.5-22.95l0.12-0.11l0.13-0.1c6.62-5.12,10.6-12.86,10.93-21.22l0-0.11l0.01-0.11
			c0.13-1.29,0.13-2.6,0-3.89l-0.03-0.3c-0.84-9.29-8.51-16.31-17.84-16.31c-0.54,0-1.09,0.02-1.64,0.07l-0.3,0.03l-0.3-0.02
			c-0.49-0.04-0.99-0.06-1.49-0.06c-5.88,0-11.38,2.61-15.1,7.17c-5.09,6.11-7.47,14.47-7.73,27.13l-0.13,6.63h-60.09v-6.76
			c0-25.72,4.41-42.47,15.22-57.8c13.75-20.55,38.91-31.91,70.79-31.91c24.98,0,45.98,7.5,60.71,21.7
			c14.05,13.93,21.85,33.21,21.44,52.93c0,32.44-17.47,50.99-36.37,66.18c-7.1,6.08-14.82,11.79-22.29,17.31
			c-6.78,4.78-13.35,9.88-19.64,15.24l78.57-0.04v56.55H803.1z"/>
		<g>
			<path class="st2" d="M892.19,421.17c24,0,44.13,7.15,58.17,20.67c13.36,13.25,20.71,31.4,20.32,50.22
				c0,31.03-16.85,48.81-35.05,63.43c-7,5.99-14.69,11.69-22.13,17.18c-9.51,6.71-18.58,14.01-27.17,21.86l84.61-0.04v49.21H806.83
				l0.06-3.15c0.64-39.05,19.05-60.32,37.03-75.99c9.07-8.07,19.42-15.92,29.43-23.51c10.63-8.06,20.66-15.67,28.78-23.18
				c7.46-5.77,11.98-14.55,12.35-23.97c0.16-1.54,0.16-3.09,0-4.63c-0.01-0.08-0.01-0.16-0.02-0.25
				c-1.01-11.22-10.44-19.67-21.49-19.67c-0.65,0-1.31,0.03-1.97,0.09c-0.59-0.05-1.18-0.07-1.77-0.07c-6.92,0-13.52,3.1-17.94,8.51
				c-5.66,6.78-8.28,15.81-8.55,29.38l-0.06,3.03h-52.83v-3.09c0-24.86,4.22-41.03,14.55-55.69
				C837.47,431.97,861.56,421.17,892.19,421.17 M892.19,413.83c-33.11,0-59.33,11.91-73.84,33.54
				c-11.25,15.99-15.84,33.34-15.84,59.84v3.09v7.33h7.33h52.83h7.19l0.14-7.19l0.06-3.03c0.24-11.78,2.35-19.43,6.85-24.83
				l0.02-0.03l0.02-0.03c3.02-3.7,7.49-5.82,12.26-5.82c0.4,0,0.81,0.02,1.21,0.05l0.61,0.05l0.61-0.05
				c0.43-0.04,0.87-0.06,1.31-0.06c7.42,0,13.52,5.58,14.19,12.99l0.01,0.17l0.01,0.08l0.01,0.08c0.11,1.05,0.11,2.11,0,3.16
				l-0.02,0.22l-0.01,0.22c-0.29,7.28-3.75,14-9.51,18.46l-0.26,0.2l-0.24,0.22c-7.9,7.31-17.77,14.79-28.23,22.72
				c-9.6,7.27-20.47,15.51-29.84,23.85c-8.16,7.12-18.55,17.08-26.54,31.1c-8.42,14.77-12.66,31.21-12.97,50.28l-0.06,3.14
				l-0.13,7.46h7.46h164.11h7.33v-7.33v-49.21v-7.34l-7.34,0l-64.63,0.03c3.74-2.95,7.55-5.79,11.42-8.52l0.07-0.05l0.07-0.05
				c7.5-5.54,15.25-11.28,22.45-17.43c8.09-6.51,18.31-15.48,25.84-27.26c7.96-12.46,11.84-26.12,11.85-41.74
				c0.41-20.7-7.79-40.92-22.49-55.5l-0.04-0.04l-0.04-0.04C940.01,421.69,918.14,413.83,892.19,413.83L892.19,413.83z"/>
		</g>
	</g>
</g>
</svg>
